Coordinates
version=1
nRows=14
nColumns=40
inDegrees=yes

Units are S.I. units (second, meters, Newtons, ...)
Angles are in degrees.

endheader
time	pelvis_tilt	pelvis_list	pelvis_rotation	pelvis_tx	pelvis_ty	pelvis_tz	hip_flexion_r	hip_adduction_r	hip_rotation_r	knee_angle_r	knee_angle_r_beta	ankle_angle_r	subtalar_angle_r	mtp_angle_r	hip_flexion_l	hip_adduction_l	hip_rotation_l	knee_angle_l	knee_angle_l_beta	ankle_angle_l	subtalar_angle_l	mtp_angle_l	lumbar_extension	lumbar_bending	lumbar_rotation	arm_flex_r	arm_add_r	arm_rot_r	elbow_flex_r	pro_sup_r	wrist_flex_r	wrist_dev_r	arm_flex_l	arm_add_l	arm_rot_l	elbow_flex_l	pro_sup_l	wrist_flex_l	wrist_dev_l
     25.00500000	     -5.33366757	     -3.66910196	     -3.61196879	      0.84609718	      0.92390156	      0.43752892	     27.36933678	     -0.67432330	    -14.25370265	     12.34499320	     12.34499320	      3.20099253	      4.91998063	      7.36211887	      2.40042766	     -3.19316759	    -12.73464545	     12.83771367	     12.83771367	     17.24860506	     -2.07256821	     -7.94697531	     -9.14049905	      3.51858436	      1.49686140	    -16.53236309	    -13.01048450	     -6.03028754	     24.52245927	     47.03364848	      0.00000000	      0.00000000	     18.94292115	    -17.11547957	    -15.42071034	     72.97170227	     47.59855341	      0.00000000	      0.00000000
     25.01907143	     -5.16847400	     -3.70187079	     -3.64106844	      0.84788301	      0.92288417	      0.43964301	     26.76996571	     -0.33972422	    -14.34452362	     11.91018470	     11.91018470	      2.78500941	      4.76383127	      7.03672679	      1.46037497	     -3.30886829	    -12.88248992	     12.64629310	     12.64629310	     17.84560682	     -1.67566162	     -7.65799783	     -9.10190093	      3.61461862	      1.46145813	    -17.06047093	    -12.87666590	     -6.22367555	     24.87380799	     47.01610676	      0.00000000	      0.00000000	     18.33196748	    -16.85978058	    -15.85554720	     73.45042974	     47.63937466	      0.00000000	      0.00000000
     25.03314286	     -5.02773719	     -3.73664313	     -3.65492301	      0.84992282	      0.92180322	      0.44192163	     26.24419987	     -0.02683347	    -14.09580146	     11.85489224	     11.85489224	      1.98911807	      3.95217711	      5.32325185	      0.55212731	     -3.45852315	    -13.08374472	     12.52048253	     12.52048253	     18.65334272	     -1.11486209	     -6.86090531	     -8.99006221	      3.72577467	      1.31483044	    -17.40236368	    -12.74692084	     -6.45490812	     25.39248084	     46.98627345	      0.00000000	      0.00000000	     17.49049503	    -16.56242259	    -16.50308222	     73.81121199	     47.69536272	      0.00000000	      0.00000000
     25.04721429	     -4.91097672	     -3.83303727	     -3.60000797	      0.85211821	      0.92059821	      0.44423964	     25.74107306	      0.26469212	    -13.93482136	     12.01341850	     12.01341850	      0.64548725	      3.01813477	      1.75634059	     -0.16084640	     -3.72921564	    -13.21257381	     12.75599350	     12.75599350	     19.70551133	     -0.60684632	     -5.64763733	     -8.80460198	      3.92017598	      1.23078445	    -17.44155154	    -12.63613260	     -6.49052706	     25.44326904	     46.94056801	      0.00000000	      0.00000000	     16.76994235	    -16.24447697	    -16.83651797	     73.74344017	     47.73219052	      0.00000000	      0.00000000
     25.06128571	     -4.74889686	     -3.98128355	     -3.54348818	      0.85442071	      0.91967085	      0.44667275	     25.38613933	      0.51187954	    -13.78118177	     12.81685067	     12.81685067	      0.53157312	      2.24515539	      1.25073848	     -1.05582310	     -3.99892110	    -13.14400092	     12.67553323	     12.67553323	     20.10105445	     -0.58639569	     -5.50058620	     -8.67680203	      4.17423283	      1.24515166	    -17.31372438	    -12.52608221	     -6.47729856	     25.48198592	     46.93346669	      0.00000000	      0.00000000	     16.06216132	    -15.95394506	    -16.81185547	     73.39396467	     47.72164294	      0.00000000	      0.00000000
     25.07535714	     -4.64701973	     -4.09585223	     -3.46355037	      0.85681755	      0.91878452	      0.44928736	     25.07724274	      0.81028237	    -13.03193500	     13.60284908	     13.60284908	     -0.15476066	      0.38571272	     -0.69889970	     -1.78261779	     -4.28023912	    -13.03226195	     12.82098287	     12.82098287	     20.78880093	     -0.50418971	     -4.54112728	     -8.46237705	      4.38991226	      1.15473760	    -16.89759042	    -12.35774948	     -6.40108986	     25.45501524	     46.91560795	      0.00000000	      0.00000000	     15.20897097	    -15.58290755	    -17.05122507	     72.80405031	     47.72757676	      0.00000000	      0.00000000
     25.08942857	     -4.46797176	     -4.24315042	     -3.34028390	      0.85919149	      0.91817272	      0.45193730	     24.79683336	      1.02116136	    -12.69412934	     14.70845593	     14.70845593	     -0.30338917	     -0.76623444	     -1.92004347	     -2.45536546	     -4.64011609	    -12.91604411	     13.19770613	     13.19770613	     21.31500217	     -0.49970996	     -3.99712914	     -8.38138606	      4.63813672	      1.11539986	    -16.29947993	    -12.19263776	     -6.32060189	     25.50265778	     46.90299396	      0.00000000	      0.00000000	     14.37413309	    -15.23015446	    -17.08023632	     72.17510731	     47.71547189	      0.00000000	      0.00000000
     25.10350000	     -4.22926960	     -4.46417247	     -3.18499405	      0.86160734	      0.91790082	      0.45476534	     24.42773230	      1.31259772	    -12.42619307	     15.81349328	     15.81349328	     -0.16599765	     -1.84225597	     -2.65990587	     -3.06904162	     -5.12995390	    -12.75955487	     13.80137673	     13.80137673	     21.67073448	     -0.71205963	     -3.65606556	     -8.39188288	      4.94538777	      1.11204119	    -15.55418102	    -12.04252510	     -6.24941590	     25.63039853	     46.89344310	      0.00000000	      0.00000000	     13.53704535	    -14.82943622	    -17.02526451	     71.47711998	     47.69481023	      0.00000000	      0.00000000
     25.11757143	     -4.10180038	     -4.64136769	     -3.00583801	      0.86380489	      0.91775773	      0.45773040	     24.22526085	      1.60997809	    -11.89380591	     16.94356389	     16.94356389	     -0.00858791	     -3.33143589	     -3.42752206	     -3.29179925	     -5.66047376	    -12.50423947	     14.86553505	     14.86553505	     22.05263834	     -0.96043469	     -3.15304258	     -8.27500204	      5.19769492	      0.96685889	    -14.52957349	    -11.89014563	     -6.12536716	     25.72357806	     46.88164421	      0.00000000	      0.00000000	     12.60943921	    -14.47168972	    -17.00823421	     70.36556404	     47.66945296	      0.00000000	      0.00000000
     25.13164286	     -3.75690140	     -4.85259262	     -2.84406387	      0.86620557	      0.91837634	      0.46078351	     23.57929047	      1.91634594	    -11.78123053	     17.73946017	     17.73946017	      0.47598750	     -3.81884563	     -3.78058919	     -3.82433340	     -6.20795109	    -12.30118216	     15.77550085	     15.77550085	     22.02094573	     -1.28277238	     -3.09478777	     -8.46793673	      5.46689933	      1.19249478	    -13.57100801	    -11.69077959	     -6.06236773	     26.00242352	     46.87156449	      0.00000000	      0.00000000	     11.65002282	    -13.78116668	    -16.79060922	     69.69885663	     47.63559178	      0.00000000	      0.00000000
     25.14571429	     -3.72707637	     -5.04213038	     -2.54926202	      0.86801474	      0.91856153	      0.46394608	     23.43014017	      2.24892923	    -11.39778854	     18.71200575	     18.71200575	      0.97078825	     -5.20070581	     -4.08711218	     -3.28032158	     -6.95889746	    -11.87897983	     17.97071009	     17.97071009	     22.15227419	     -1.83968530	     -3.14405708	     -8.28410292	      5.71218301	      0.79075246	    -12.11452946	    -11.61843544	     -5.92970981	     26.27349287	     46.85625678	      0.00000000	      0.00000000	     10.74714361	    -13.67443147	    -16.70814679	     67.94362604	     47.59521829	      0.00000000	      0.00000000
     25.15978571	     -3.54929114	     -5.21395741	     -2.28508066	      0.86991784	      0.91936665	      0.46719344	     22.90415094	      2.58232095	    -11.22945012	     19.28789787	     19.28789787	      1.58282240	     -5.93783301	     -4.21365200	     -2.88186528	     -7.70428176	    -11.53006818	     20.16432344	     20.16432344	     21.91378375	     -2.33567469	     -3.46183871	     -8.30280033	      5.92138525	      0.68905219	    -10.67385042	    -11.50512172	     -5.75875169	     26.57077434	     46.83571154	      0.00000000	      0.00000000	      9.90674381	    -13.25541464	    -16.51118896	     66.24522919	     47.54737705	      0.00000000	      0.00000000
     25.17385714	     -3.34097611	     -5.36801075	     -1.98239133	      0.87169716	      0.92036994	      0.47044569	     22.25398390	      2.87663350	    -11.26938611	     19.68349519	     19.68349519	      2.27675319	     -6.29455040	     -4.32054635	     -2.24924170	     -8.48318442	    -11.02684598	     22.77903459	     22.77903459	     21.35234658	     -3.01741433	     -4.15252319	     -8.39015488	      6.10050109	      0.60066634	     -9.17280730	    -11.41385504	     -5.64860401	     27.08825797	     46.81252588	      0.00000000	      0.00000000	      9.05259079	    -12.86478846	    -16.24167717	     64.60829771	     47.49506555	      0.00000000	      0.00000000
     25.18792857	     -3.22444772	     -5.48450802	     -1.66166586	      0.87327138	      0.92134835	      0.47370950	     21.61835174	      3.13906237	    -11.40926656	     19.88875095	     19.88875095	      2.97937102	     -6.44825826	     -4.37407877	     -1.22140936	     -9.28662398	    -10.41528485	     25.84460417	     25.84460417	     20.38895885	     -3.82804869	     -5.29927132	     -8.35723750	      6.22468244	      0.42966649	     -7.58832520	    -11.35092232	     -5.54952278	     27.77651833	     46.78277180	      0.00000000	      0.00000000	      8.19034683	    -12.47966882	    -15.89620155	     62.62431004	     47.43168653	      0.00000000	      0.00000000
